<svg xmlns="http://www.w3.org/2000/svg" width="57" height="57" viewBox="0 0 57 57"><circle cx="28.5" cy="28.5" r="28.5" fill="#12263f" opacity="0.45"/><circle cx="22" cy="22" r="22" transform="translate(7 6)" fill="#fff"/><g transform="translate(14.368 -9.626)"><g transform="translate(1.496 22.038)"><g transform="translate(0 0)"><path d="M29.384,69.964a1.147,1.147,0,0,1,1.145,1.145V94.1a1.147,1.147,0,0,1-1.145,1.145H10.145A1.147,1.147,0,0,1,9,94.1V71.109a1.147,1.147,0,0,1,1.145-1.145Z" transform="translate(-9 -67.487)" fill="#efbf6d" fill-rule="evenodd"/><path d="M39.446,100.409v21.546H54.5l2.74-2.74V100.409Z" transform="translate(-37.58 -96.066)" fill="#eff4f7" fill-rule="evenodd"/><path d="M285.167,407.3v2.74l2.74-2.74Z" transform="translate(-268.244 -384.148)" fill="#e2e3e3" fill-rule="evenodd"/><path d="M115.848,32.018H118.6L117.462,30.4a.546.546,0,0,1,.446-.862h3.576a.546.546,0,0,1,.446.862l-1.142,1.615h2.756a.394.394,0,0,1,.393.393v1.814a.394.394,0,0,1-.393.393h-7.7a.394.394,0,0,1-.393-.393V32.411A.394.394,0,0,1,115.848,32.018Z" transform="translate(-108.932 -29.541)" fill="#8d9ca8" fill-rule="evenodd"/></g><g transform="translate(4.143 7.446)"><path d="M83.236,151.044l6.621,2.575v6.073l-6.621,2.575-6.621-2.575v-6.073Z" transform="translate(-76.615 -151.044)" fill="#da8c36" fill-rule="evenodd"/><path d="M184.666,151.044l6.621,2.575v6.073l-6.621,2.575Z" transform="translate(-178.045 -151.044)" fill="#b06328" fill-rule="evenodd"/><path d="M83.236,151.044l6.621,2.575-6.621,2.575-6.621-2.575Z" transform="translate(-76.615 -151.044)" fill="#c97629" fill-rule="evenodd"/><path d="M114.622,168.4v2.047l-2.237-.87v-2.047l6.621-2.575,2.237.87-.316.123Z" transform="translate(-110.193 -164.101)" fill="#b06328" fill-rule="evenodd"/></g><g transform="translate(10.643 5.301)"><path d="M374.274,309.263l1.033-1.1-2.089-2.089-1.108,1.03Z" transform="translate(-360.503 -294.425)" fill="#8d9ca8" fill-rule="evenodd"/><path d="M6.331,0A6.331,6.331,0,1,1,0,6.331,6.331,6.331,0,0,1,6.331,0Z" transform="matrix(0.352, -0.936, 0.936, 0.352, 0, 11.852)" fill="#91b3fa"/><path d="M239.739,168.111a4.958,4.958,0,1,1-4.958,4.958A4.958,4.958,0,0,1,239.739,168.111Z" transform="translate(-231.588 -164.92)" fill="#e6f8ff" fill-rule="evenodd"/><path d="M397.181,329.137l-1.375,1.375a.366.366,0,0,0,0,.516l4.188,4.188a1.337,1.337,0,0,0,1.891-1.891l-4.188-4.188A.365.365,0,0,0,397.181,329.137Z" transform="translate(-382.646 -315.979)" fill="#b4d2d7" fill-rule="evenodd"/><path d="M395.806,331.028l.96.96,1.891-1.891-.96-.96a.366.366,0,0,0-.516,0l-1.375,1.375A.365.365,0,0,0,395.806,331.028Z" transform="translate(-382.646 -315.979)" fill="#9bb9c3" fill-rule="evenodd"/></g></g><path d="M20.29,31.019a4.468,4.468,0,1,0,4.467,4.468A4.473,4.473,0,0,0,20.29,31.019Zm0-.98a5.448,5.448,0,1,1-5.448,5.448A5.454,5.454,0,0,1,20.29,30.039ZM31.278,45.63a.84.84,0,0,0-.246-.6L28.15,42.15l-1.2,1.2,2.883,2.882a.834.834,0,0,0,.6.246.84.84,0,0,0,.844-.845Zm-5.543-3.5.525.524,1.2-1.2-.525-.524Zm-.282-1.1.375-.376-.533-.534c-.12.13-.246.255-.375.375Zm-2.917.9v6.719a.656.656,0,0,1-.655.654H2.641a.655.655,0,0,1-.654-.654V25.66a.655.655,0,0,1,.654-.654H7.529v.885H3.362a.49.49,0,0,0-.49.49V47.926a.49.49,0,0,0,.49.49H18.419a.489.489,0,0,0,.347-.143l2.74-2.74a.489.489,0,0,0,.143-.346V42.172A6.8,6.8,0,0,0,22.535,41.928ZM8.51,25.005v1.62h7.5v-1.62H13.353a.49.49,0,0,1-.4-.773l1.142-1.615a.056.056,0,0,0-.046-.089H10.473a.056.056,0,0,0-.047.089l1.142,1.615a.49.49,0,0,1-.4.773Zm13.371,0H16.992v.885H21.16a.49.49,0,0,1,.49.49V28.8a6.8,6.8,0,0,1,.886.243V25.66a.656.656,0,0,0-.655-.654ZM15.07,31.1l-.617-.24L9.184,32.91l.884.344L14.83,31.4q.116-.155.24-.3Zm-1.033,1.662L11.422,33.78l.839.327,1.5-.582a6.736,6.736,0,0,1,.28-.762Zm-1.286,7.225,1.862-.724a6.78,6.78,0,0,1-1.144-3.777,6.926,6.926,0,0,1,.049-.817l-.766.3ZM6.13,37.795l5.641,2.193V34.967L10.559,34.5v1.331a.49.49,0,0,1-.668.457l-2.237-.87a.491.491,0,0,1-.313-.457V33.245L6.13,32.774v5.021Zm1.7-5.411L13.1,30.335l-.839-.326L6.992,32.058Zm.49,2.238,1.257.489v-1l-1.257-.488ZM18.91,45.677v1.066l1.067-1.066Zm1.76-3.379v2.4h-2.25a.49.49,0,0,0-.49.49v2.25H3.853V26.871H7.529v.245a.491.491,0,0,0,.49.49H16.5a.49.49,0,0,0,.49-.49v-.245H20.67v1.806c-.126-.007-.253-.011-.38-.011a6.789,6.789,0,0,0-4.472,1.675l-3.38-1.314a.489.489,0,0,0-.355,0L5.462,31.6a.492.492,0,0,0-.313.457V38.13a.491.491,0,0,0,.313.457l6.621,2.574a.484.484,0,0,0,.355,0l2.8-1.09a6.807,6.807,0,0,0,5.047,2.237c.127,0,.254,0,.379-.01ZM20.29,29.646a5.841,5.841,0,1,1-5.841,5.841A5.848,5.848,0,0,1,20.29,29.646ZM32.258,45.63a1.826,1.826,0,0,1-3.116,1.293L24.7,42.476a.49.49,0,0,1,0-.693l.064-.064-.61-.61a6.973,6.973,0,0,1-.633.388v7.151a1.637,1.637,0,0,1-1.636,1.635H2.641a1.637,1.637,0,0,1-1.635-1.635V25.66a1.637,1.637,0,0,1,1.635-1.635h7.58l-.6-.842a1.036,1.036,0,0,1,.847-1.635h3.576a1.036,1.036,0,0,1,.847,1.635l-.6.842h7.58a1.637,1.637,0,0,1,1.636,1.635v3.819a6.815,6.815,0,0,1,2.4,9.868l.61.61.064-.064a.49.49,0,0,1,.693,0l4.447,4.447a1.812,1.812,0,0,1,.532,1.292ZM8.707,43.109,7.194,44.636l-.686-.669a.49.49,0,0,0-.684.7l1.035,1.009a.491.491,0,0,0,.691-.006L9.4,43.8a.49.49,0,1,0-.7-.69Zm7.316,1.772H11.378a.49.49,0,0,0,0,.981h4.645a.49.49,0,0,0,0-.981Zm2.824-1.472a.49.49,0,0,0-.49-.49H11.378a.49.49,0,0,0,0,.981h6.979A.49.49,0,0,0,18.847,43.409Z" fill-rule="evenodd"/></g></svg>