<svg xmlns="http://www.w3.org/2000/svg" width="24.175" height="58.86" viewBox="0 0 24.175 58.86"><path d="M234.257,101.782V94.957h-13.2A32.45,32.45,0,0,1,222.5,90.34a44.505,44.505,0,0,1,1.886-4.1q1.024-1.951,2.064-3.836l5.265-9.362a29.778,29.778,0,0,0,1.854-3.884,26.144,26.144,0,0,0,1.283-4.4,25.325,25.325,0,0,0,.471-5.007,26.969,26.969,0,0,0-1.1-7.947,12.235,12.235,0,0,0-3.543-5.738,9.487,9.487,0,0,0-6.5-2.145q-5.235,0-7.8,2.356a11.851,11.851,0,0,0-3.4,6.779,58.45,58.45,0,0,0-.828,10.6v3.51h8.322V59.915a24.163,24.163,0,0,1,.455-5.478,4.271,4.271,0,0,1,1.251-2.4,2.874,2.874,0,0,1,1.772-.6,2.313,2.313,0,0,1,1.675.683,4.8,4.8,0,0,1,1.072,2.406,24.31,24.31,0,0,1,.374,4.876,33.723,33.723,0,0,1-.179,3.689,21.069,21.069,0,0,1-.5,2.877,14.5,14.5,0,0,1-.8,2.324,19.125,19.125,0,0,1-1.056,2.032l-5.657,9.395a59.393,59.393,0,0,0-3.413,6.5,32.528,32.528,0,0,0-2.032,6.079,28.04,28.04,0,0,0-.666,6.111v3.381Z" transform="translate(-211.653 -43.422)" fill="none" stroke="#12263f" stroke-miterlimit="10" stroke-width="1"/></svg>