<svg xmlns="http://www.w3.org/2000/svg" xmlns:xlink="http://www.w3.org/1999/xlink" width="1030" height="1003.213" viewBox="0 0 1030 1003.213"><defs><clipPath id="a"><rect width="1030" height="1003.213" fill="none" stroke="#707070" stroke-width="3"/></clipPath></defs><rect width="1028.581" height="1001.793" transform="translate(0.709 0.711)" fill="#fff"/><g clip-path="url(#a)"><rect width="1028.581" height="1001.794" transform="translate(0.709 0.709)" fill="none" stroke="#12263f" stroke-miterlimit="10" stroke-width="3"/></g><rect width="941.57" height="50.357" transform="translate(44.757 40.539)" fill="#fe8849"/><text transform="translate(310.757 75.051)" fill="#fff" font-size="28" font-family="Roboto-Bold, Roboto" font-weight="700"><tspan x="0" y="0">FIC</tspan><tspan y="0" letter-spacing="0.009em">H</tspan><tspan y="0">A</tspan><tspan y="0" letter-spacing="-0.026em"> </tspan><tspan y="0">TÉCNICA DEL PRODU</tspan><tspan y="0" letter-spacing="-0.016em">C</tspan><tspan y="0" letter-spacing="-0.013em">T</tspan><tspan y="0">O</tspan></text><text transform="translate(57.62 164.545)" fill="#12263f" font-size="16" font-family="Roboto-Bold, Roboto" font-weight="700"><tspan x="0" y="0">Código SKU:</tspan></text><text transform="translate(496.656 164.545)" fill="#12263f" font-size="16" font-family="Roboto-Bold, Roboto" font-weight="700"><tspan x="0" y="0">Nomb</tspan><tspan y="0" letter-spacing="-0.009em">r</tspan><tspan y="0">e:</tspan></text><rect width="941.57" height="105.745" transform="translate(45.235 107.602)" fill="none" stroke="#12263f" stroke-miterlimit="10" stroke-width="1"/><rect width="941.57" height="35.968" transform="translate(45.235 141.134)" fill="none" stroke="#12263f" stroke-miterlimit="10" stroke-width="1"/><rect width="941.57" height="34.773" transform="translate(45.235 107.502)" fill="#12263f"/><line y1="34.827" transform="translate(479.667 142.275)" fill="none" stroke="#12263f" stroke-miterlimit="10" stroke-width="1"/><text transform="translate(57.62 200.791)" fill="#12263f" font-size="16" font-family="Roboto-Bold, Roboto" font-weight="700"><tspan x="0" y="0">Ma</tspan><tspan y="0" letter-spacing="-0.008em">r</tspan><tspan y="0">ca:</tspan></text><text transform="translate(496.656 200.791)" fill="#12263f" font-size="16" font-family="Roboto-Bold, Roboto" font-weight="700"><tspan x="0" y="0">Modelo/Re</tspan><tspan y="0" letter-spacing="-0.01em">f</tspan><tspan y="0">e</tspan><tspan y="0" letter-spacing="-0.009em">r</tspan><tspan y="0">encia:</tspan></text><line y1="34.827" transform="translate(479.667 178.52)" fill="none" stroke="#12263f" stroke-miterlimit="10" stroke-width="1"/><text transform="translate(57.62 287.097)" fill="#12263f" font-size="16" font-family="Roboto-Bold, Roboto" font-weight="700"><tspan x="0" y="0" letter-spacing="-0.006em">P</tspan><tspan y="0">eso:</tspan></text><text transform="translate(496.656 287.097)" fill="#12263f" font-size="16" font-family="Roboto-Bold, Roboto" font-weight="700"><tspan x="0" y="0">Dimensiones (La</tspan><tspan y="0" letter-spacing="-0.011em">r</tspan><tspan y="0">go x </tspan><tspan y="0" letter-spacing="-0.016em">A</tspan><tspan y="0">ncho x Al</tspan><tspan y="0" letter-spacing="-0.014em">t</tspan><tspan y="0">o):</tspan></text><rect width="941.57" height="105.745" transform="translate(45.235 230.155)" fill="none" stroke="#12263f" stroke-miterlimit="10" stroke-width="1"/><rect width="941.57" height="35.968" transform="translate(45.235 263.687)" fill="none" stroke="#12263f" stroke-miterlimit="10" stroke-width="1"/><rect width="941.57" height="34.773" transform="translate(45.235 230.055)" fill="#12263f"/><line y1="34.827" transform="translate(479.667 264.827)" fill="none" stroke="#12263f" stroke-miterlimit="10" stroke-width="1"/><text transform="translate(57.62 323.344)" fill="#12263f" font-size="16" font-family="Roboto-Bold, Roboto" font-weight="700"><tspan x="0" y="0" letter-spacing="-0.022em">V</tspan><tspan y="0">olumen:</tspan></text><text transform="translate(57.62 254.634)" fill="#fff" font-size="24" font-family="Roboto-Bold, Roboto" font-weight="700"><tspan x="0" y="0">Ca</tspan><tspan y="0" letter-spacing="-0.015em">r</tspan><tspan y="0">acterísticas físicas</tspan></text><text transform="translate(57.62 660.394)" fill="#12263f" font-size="16" font-family="Roboto-Bold, Roboto" font-weight="700"><tspan x="0" y="0" letter-spacing="-0.01em">F</tspan><tspan y="0">echa de fabricación:</tspan></text><text transform="translate(496.656 660.394)" fill="#12263f" font-size="16" font-family="Roboto-Bold, Roboto" font-weight="700"><tspan x="0" y="0">Vida útil:</tspan></text><rect width="941.57" height="105.745" transform="translate(45.235 603.452)" fill="none" stroke="#12263f" stroke-miterlimit="10" stroke-width="1"/><rect width="941.57" height="35.968" transform="translate(45.235 636.983)" fill="none" stroke="#12263f" stroke-miterlimit="10" stroke-width="1"/><rect width="941.57" height="34.773" transform="translate(45.235 603.35)" fill="#12263f"/><line y1="34.827" transform="translate(479.667 638.124)" fill="none" stroke="#12263f" stroke-miterlimit="10" stroke-width="1"/><text transform="translate(57.62 696.64)" fill="#12263f" font-size="16" font-family="Roboto-Bold, Roboto" font-weight="700"><tspan x="0" y="0" letter-spacing="-0.01em">F</tspan><tspan y="0">echa de </tspan><tspan y="0" letter-spacing="-0.007em">v</tspan><tspan y="0">encimien</tspan><tspan y="0" letter-spacing="-0.014em">t</tspan><tspan y="0">o (si aplica):</tspan></text><text transform="translate(57.62 627.93)" fill="#fff" font-size="24" font-family="Roboto-Bold, Roboto" font-weight="700"><tspan x="0" y="0">Vida útil y caducidad</tspan></text><text transform="translate(57.62 573.787)" fill="#12263f" font-size="16" font-family="Roboto-Bold, Roboto" font-weight="700"><tspan x="0" y="0">Tipo de </tspan><tspan y="0" letter-spacing="-0.008em">v</tspan><tspan y="0">ehículo </tspan><tspan y="0" letter-spacing="-0.009em">r</tspan><tspan y="0">equerido:</tspan></text><text transform="translate(496.656 573.787)" fill="#12263f" font-size="16" font-family="Roboto-Bold, Roboto" font-weight="700"><tspan x="0" y="0">Embalaje especial:</tspan></text><rect width="941.57" height="69.499" transform="translate(45.235 516.844)" fill="none" stroke="#12263f" stroke-miterlimit="10" stroke-width="1"/><rect width="941.57" height="34.773" transform="translate(45.235 516.744)" fill="#12263f"/><line y1="34.827" transform="translate(479.667 551.517)" fill="none" stroke="#12263f" stroke-miterlimit="10" stroke-width="1"/><text transform="translate(57.62 541.323)" fill="#fff" font-size="24" font-family="Roboto-Bold, Roboto" font-weight="700"><tspan x="0" y="0">Requisi</tspan><tspan y="0" letter-spacing="-0.014em">t</tspan><tspan y="0">os de t</tspan><tspan y="0" letter-spacing="-0.016em">r</tspan><tspan y="0">anspo</tspan><tspan y="0" letter-spacing="0.023em">r</tspan><tspan y="0">te</tspan></text><text transform="translate(57.62 409.75)" fill="#12263f" font-size="16" font-family="Roboto-Bold, Roboto" font-weight="700"><tspan x="0" y="0" letter-spacing="-0.044em">T</tspan><tspan y="0">empe</tspan><tspan y="0" letter-spacing="-0.016em">r</tspan><tspan y="0">atu</tspan><tspan y="0" letter-spacing="-0.015em">r</tspan><tspan y="0">a </tspan><tspan y="0" letter-spacing="-0.009em">r</tspan><tspan y="0">ecomendada:</tspan></text><text transform="translate(496.656 409.75)" fill="#12263f" font-size="16" font-family="Roboto-Bold, Roboto" font-weight="700"><tspan x="0" y="0">Humedad </tspan><tspan y="0" letter-spacing="-0.009em">r</tspan><tspan y="0">elati</tspan><tspan y="0" letter-spacing="-0.007em">v</tspan><tspan y="0">a:</tspan></text><rect width="941.57" height="147.029" transform="translate(45.235 352.808)" fill="none" stroke="#12263f" stroke-miterlimit="10" stroke-width="1"/><rect width="941.57" height="35.968" transform="translate(45.235 386.339)" fill="none" stroke="#12263f" stroke-miterlimit="10" stroke-width="1"/><rect width="941.57" height="34.773" transform="translate(45.235 352.707)" fill="#12263f"/><line y1="34.827" transform="translate(479.667 387.48)" fill="none" stroke="#12263f" stroke-miterlimit="10" stroke-width="1"/><text transform="translate(57.62 445.996)" fill="#12263f" font-size="16" font-family="Roboto-Bold, Roboto" font-weight="700"><tspan x="0" y="0" letter-spacing="-0.012em">F</tspan><tspan y="0" letter-spacing="-0.016em">r</tspan><tspan y="0">agilidad/P</tspan><tspan y="0" letter-spacing="-0.01em">r</tspan><tspan y="0">ecauciones:</tspan></text><text transform="translate(57.62 377.286)" fill="#fff" font-size="24" font-family="Roboto-Bold, Roboto" font-weight="700"><tspan x="0" y="0">Condiciones de almacenamien</tspan><tspan y="0" letter-spacing="-0.015em">t</tspan><tspan y="0">o</tspan></text><text transform="translate(57.62 132.75)" fill="#fff" font-size="24" font-family="Roboto-Bold, Roboto" font-weight="700"><tspan x="0" y="0">Identificación del bien</tspan></text><text transform="translate(57.62 783.348)" fill="#12263f" font-size="16" font-family="Roboto-Bold, Roboto" font-weight="700"><tspan x="0" y="0">Ce</tspan><tspan y="0" letter-spacing="0.024em">r</tspan><tspan y="0">tificación ISO:</tspan></text><text transform="translate(496.656 783.348)" fill="#12263f" font-size="16" font-family="Roboto-Bold, Roboto" font-weight="700"><tspan x="0" y="0">F</tspan><tspan y="0" letter-spacing="-0.01em">D</tspan><tspan y="0">A:</tspan></text><rect width="941.57" height="105.745" transform="translate(45.235 726.405)" fill="none" stroke="#12263f" stroke-miterlimit="10" stroke-width="1"/><rect width="941.57" height="35.968" transform="translate(45.235 759.937)" fill="none" stroke="#12263f" stroke-miterlimit="10" stroke-width="1"/><rect width="941.57" height="34.773" transform="translate(45.235 726.305)" fill="#12263f"/><line y1="34.827" transform="translate(479.667 761.077)" fill="none" stroke="#12263f" stroke-miterlimit="10" stroke-width="1"/><text transform="translate(57.62 819.593)" fill="#12263f" font-size="16" font-family="Roboto-Bold, Roboto" font-weight="700"><tspan x="0" y="0" letter-spacing="-0.014em">N</tspan><tspan y="0" letter-spacing="-0.013em">T</tspan><tspan y="0">C:</tspan></text><text transform="translate(496.656 819.593)" fill="#12263f" font-size="16" font-family="Roboto-Bold, Roboto" font-weight="700"><tspan x="0" y="0">Ot</tspan><tspan y="0" letter-spacing="-0.015em">r</tspan><tspan y="0">as:</tspan></text><line y1="34.827" transform="translate(479.667 797.323)" fill="none" stroke="#12263f" stroke-miterlimit="10" stroke-width="1"/><text transform="translate(57.62 751.547)" fill="#fff" font-size="24" font-family="Roboto-Bold, Roboto" font-weight="700"><tspan x="0" y="0">Normati</tspan><tspan y="0" letter-spacing="-0.006em">v</tspan><tspan y="0">as y ce</tspan><tspan y="0" letter-spacing="0.023em">r</tspan><tspan y="0">tificaciones</tspan></text><text transform="translate(57.62 906.402)" fill="#12263f" font-size="16" font-family="Roboto-Bold, Roboto" font-weight="700"><tspan x="0" y="0" letter-spacing="-0.016em">F</tspan><tspan y="0">abricante/P</tspan><tspan y="0" letter-spacing="-0.015em">r</tspan><tspan y="0" letter-spacing="-0.007em">o</tspan><tspan y="0" letter-spacing="-0.006em">v</tspan><tspan y="0">eedor:</tspan></text><text transform="translate(496.656 906.402)" fill="#12263f" font-size="16" font-family="Roboto-Bold, Roboto" font-weight="700"><tspan x="0" y="0">Contac</tspan><tspan y="0" letter-spacing="-0.012em">t</tspan><tspan y="0">o:</tspan></text><rect width="941.57" height="105.745" transform="translate(45.235 849.459)" fill="none" stroke="#12263f" stroke-miterlimit="10" stroke-width="1"/><rect width="941.57" height="35.968" transform="translate(45.235 882.99)" fill="none" stroke="#12263f" stroke-miterlimit="10" stroke-width="1"/><rect width="941.57" height="34.773" transform="translate(45.235 849.357)" fill="#12263f"/><line y1="34.827" transform="translate(479.667 884.131)" fill="none" stroke="#12263f" stroke-miterlimit="10" stroke-width="1"/><text transform="translate(57.62 942.646)" fill="#12263f" font-size="16" font-family="Roboto-Bold, Roboto" font-weight="700"><tspan x="0" y="0" letter-spacing="-0.044em">T</tspan><tspan y="0">eléfono/Cor</tspan><tspan y="0" letter-spacing="-0.008em">r</tspan><tspan y="0">eo:</tspan></text><text transform="translate(496.656 942.646)" fill="#12263f" font-size="16" font-family="Roboto-Bold, Roboto" font-weight="700"><tspan x="0" y="0">Di</tspan><tspan y="0" letter-spacing="-0.009em">r</tspan><tspan y="0">ección:</tspan></text><line y1="34.827" transform="translate(479.667 920.377)" fill="none" stroke="#12263f" stroke-miterlimit="10" stroke-width="1"/><text transform="translate(57.62 874.6)" fill="#fff" font-size="24" font-family="Roboto-Bold, Roboto" font-weight="700"><tspan x="0" y="0">P</tspan><tspan y="0" letter-spacing="-0.015em">r</tspan><tspan y="0" letter-spacing="-0.007em">o</tspan><tspan y="0" letter-spacing="-0.006em">v</tspan><tspan y="0">eedor y da</tspan><tspan y="0" letter-spacing="-0.012em">t</tspan><tspan y="0">os de comp</tspan><tspan y="0" letter-spacing="-0.016em">r</tspan><tspan y="0">a</tspan></text></svg>