<svg xmlns="http://www.w3.org/2000/svg" width="15.513" height="15.513" viewBox="0 0 15.513 15.513"><g transform="translate(0 0)"><path d="M7.756,0A7.756,7.756,0,1,1,0,7.756,7.756,7.756,0,0,1,7.756,0Z" transform="translate(0 0)" fill="#fe8849"/><path d="M168.645,198.44c1.258-1.259,2.461-2.472,3.674-3.675a.819.819,0,0,1,1.372.16.757.757,0,0,1-.14.911q-2.151,2.17-4.321,4.322a.781.781,0,0,1-1.173-.022q-1.044-1.015-2.059-2.059a.816.816,0,1,1,1.151-1.156c.5.485.978.991,1.5,1.519" transform="translate(-162.001 -189.684)" fill="#fff"/></g></svg>