<svg xmlns="http://www.w3.org/2000/svg" width="25.769" height="59.511" viewBox="0 0 25.769 59.511"><path d="M436.1,98.11q2.943-4.323,2.942-12.678a33.166,33.166,0,0,0-.552-6.355,13.715,13.715,0,0,0-1.853-4.827,8.229,8.229,0,0,0-3.576-3.056,7.646,7.646,0,0,0,4.486-4.4,19.726,19.726,0,0,0,1.4-7.786q0-7.542-3.024-11.312T426.4,43.922q-6.664,0-9.361,3.705T414.34,59v1.788h8.42V59.069a22.991,22.991,0,0,1,.341-4.436,4.364,4.364,0,0,1,1.186-2.438,3.316,3.316,0,0,1,2.309-.763,3.511,3.511,0,0,1,2.112.633,4.023,4.023,0,0,1,1.332,2.259A18.386,18.386,0,0,1,430.494,59a24.47,24.47,0,0,1-.471,5.348A5.139,5.139,0,0,1,428.4,67.31a5.038,5.038,0,0,1-3.234.926h-2.4v6.632h2.469a4.613,4.613,0,0,1,3.284,1.072,6.035,6.035,0,0,1,1.559,3.4,35.073,35.073,0,0,1,.423,6.062,38.128,38.128,0,0,1-.308,5.315A6.39,6.39,0,0,1,429,93.9a3.187,3.187,0,0,1-2.6,1.057,3.462,3.462,0,0,1-2.6-.878,4.829,4.829,0,0,1-1.1-2.73,35.2,35.2,0,0,1-.26-4.746V82.636h-8.16v3.739q0,8.092,2.584,12.075t9.249,3.982Q433.16,102.433,436.1,98.11Z" transform="translate(-413.774 -43.422)" fill="none" stroke="#12263f" stroke-miterlimit="10" stroke-width="1"/></svg>